<svg width="57" height="50" viewBox="0 0 57 50" fill="none" xmlns="http://www.w3.org/2000/svg">
<path d="M52.0742 29.4257L56.6907 9.11318C57.024 7.64658 55.9093 6.25 54.4053 6.25H16.0477L15.1525 1.87402C14.9295 0.783301 13.9697 0 12.8563 0H2.84375C1.54932 0 0.5 1.04932 0.5 2.34375V3.90625C0.5 5.20068 1.54932 6.25 2.84375 6.25H9.66826L16.5284 39.7886C14.8872 40.7324 13.7812 42.5021 13.7812 44.5312C13.7812 47.5516 16.2297 50 19.25 50C22.2703 50 24.7188 47.5516 24.7188 44.5312C24.7188 43.0006 24.0892 41.6177 23.0758 40.625H43.5491C42.5358 41.6177 41.9062 43.0006 41.9062 44.5312C41.9062 47.5516 44.3547 50 47.375 50C50.3953 50 52.8438 47.5516 52.8438 44.5312C52.8438 42.366 51.5852 40.4949 49.7599 39.6089L50.2986 37.2382C50.6319 35.7716 49.5172 34.375 48.0132 34.375H21.8005L21.1613 31.25H49.7888C50.8831 31.25 51.8317 30.4928 52.0742 29.4257Z" fill="white"/>
</svg>
