<svg width="72" height="50" viewBox="0 0 72 50" fill="none" xmlns="http://www.w3.org/2000/svg">
<path d="M11.2143 21.4286C15.154 21.4286 18.3571 18.2254 18.3571 14.2857C18.3571 10.346 15.154 7.14286 11.2143 7.14286C7.27455 7.14286 4.07143 10.346 4.07143 14.2857C4.07143 18.2254 7.27455 21.4286 11.2143 21.4286ZM61.2143 21.4286C65.154 21.4286 68.3571 18.2254 68.3571 14.2857C68.3571 10.346 65.154 7.14286 61.2143 7.14286C57.2746 7.14286 54.0714 10.346 54.0714 14.2857C54.0714 18.2254 57.2746 21.4286 61.2143 21.4286ZM64.7857 25H57.6429C55.6786 25 53.904 25.7924 52.6094 27.0759C57.1071 29.5424 60.2991 33.9955 60.9911 39.2857H68.3571C70.3326 39.2857 71.9286 37.6897 71.9286 35.7143V32.1429C71.9286 28.2031 68.7254 25 64.7857 25ZM36.2143 25C43.1228 25 48.7143 19.4085 48.7143 12.5C48.7143 5.59152 43.1228 0 36.2143 0C29.3058 0 23.7143 5.59152 23.7143 12.5C23.7143 19.4085 29.3058 25 36.2143 25ZM44.7857 28.5714H43.8594C41.5379 29.6875 38.9598 30.3571 36.2143 30.3571C33.4688 30.3571 30.9018 29.6875 28.5692 28.5714H27.6429C20.5446 28.5714 14.7857 34.3304 14.7857 41.4286V44.6429C14.7857 47.6004 17.1853 50 20.1429 50H52.2857C55.2433 50 57.6429 47.6004 57.6429 44.6429V41.4286C57.6429 34.3304 51.8839 28.5714 44.7857 28.5714ZM19.8192 27.0759C18.5246 25.7924 16.75 25 14.7857 25H7.64286C3.70313 25 0.5 28.2031 0.5 32.1429V35.7143C0.5 37.6897 2.09598 39.2857 4.07143 39.2857H11.4263C12.1295 33.9955 15.3214 29.5424 19.8192 27.0759Z" fill="white"/>
</svg>
