<svg width="66" height="50" viewBox="0 0 66 50" fill="none" xmlns="http://www.w3.org/2000/svg">
<path d="M32.0481 12.9713L11.3033 29.9207V48.2141C11.3033 48.6877 11.493 49.142 11.8306 49.4769C12.1682 49.8118 12.6261 50 13.1036 50L25.7123 49.9676C26.1882 49.9653 26.6438 49.7761 26.9794 49.4414C27.3151 49.1067 27.5035 48.6538 27.5035 48.1817V37.4986C27.5035 37.025 27.6932 36.5707 28.0308 36.2358C28.3684 35.9008 28.8263 35.7127 29.3038 35.7127H36.5049C36.9824 35.7127 37.4403 35.9008 37.7779 36.2358C38.1155 36.5707 38.3052 37.025 38.3052 37.4986V48.1739C38.3044 48.4089 38.3504 48.6417 38.4406 48.8591C38.5307 49.0764 38.6632 49.2739 38.8305 49.4403C38.9977 49.6068 39.1964 49.7388 39.4152 49.8289C39.634 49.919 39.8685 49.9654 40.1054 49.9654L52.7096 50C53.1871 50 53.645 49.8118 53.9826 49.4769C54.3202 49.142 54.5099 48.6877 54.5099 48.2141V29.9085L33.7696 12.9713C33.5258 12.7763 33.222 12.67 32.9088 12.67C32.5957 12.67 32.2919 12.7763 32.0481 12.9713ZM64.8164 24.4916L55.41 16.7999V1.33944C55.41 0.984195 55.2677 0.643505 55.0145 0.392312C54.7613 0.141119 54.4179 0 54.0598 0H47.7588C47.4007 0 47.0573 0.141119 46.8041 0.392312C46.5509 0.643505 46.4086 0.984195 46.4086 1.33944V9.44413L36.335 1.22223C35.3683 0.433061 34.1552 0.00157757 32.9032 0.00157757C31.6513 0.00157757 30.4382 0.433061 29.4714 1.22223L0.99001 24.4916C0.853288 24.6037 0.740172 24.7414 0.657125 24.8969C0.574079 25.0524 0.522729 25.2226 0.506011 25.3978C0.489292 25.5729 0.507533 25.7497 0.559689 25.9179C0.611846 26.086 0.696897 26.2424 0.809983 26.3779L3.67917 29.8382C3.79195 29.9742 3.93066 30.0868 4.08738 30.1696C4.24409 30.2524 4.41573 30.3037 4.59246 30.3206C4.76919 30.3375 4.94755 30.3197 5.11732 30.2681C5.28709 30.2165 5.44494 30.1323 5.58183 30.0201L32.0481 8.39491C32.2919 8.19994 32.5957 8.09362 32.9088 8.09362C33.222 8.09362 33.5258 8.19994 33.7696 8.39491L60.237 30.0201C60.3736 30.1323 60.5312 30.2166 60.7008 30.2684C60.8703 30.3201 61.0485 30.3382 61.2251 30.3216C61.4016 30.3051 61.5732 30.2541 61.7299 30.1717C61.8867 30.0893 62.0255 29.9771 62.1385 29.8415L65.0077 26.3813C65.1207 26.2449 65.2054 26.0878 65.2569 25.9189C65.3085 25.75 65.3258 25.5726 65.3081 25.397C65.2903 25.2214 65.2377 25.051 65.1533 24.8956C65.069 24.7402 64.9545 24.6029 64.8164 24.4916Z" fill="white"/>
</svg>
