<svg width="63" height="50" viewBox="0 0 63 50" fill="none" xmlns="http://www.w3.org/2000/svg">
<path d="M61.4375 34.375H59.875V23.8184C59.875 22.5781 59.377 21.3867 58.4981 20.5078L48.7422 10.752C47.8633 9.87305 46.6719 9.375 45.4316 9.375H41.125V4.6875C41.125 2.09961 39.0254 0 36.4375 0H5.1875C2.59961 0 0.5 2.09961 0.5 4.6875V35.9375C0.5 38.5254 2.59961 40.625 5.1875 40.625H6.75C6.75 45.8008 10.9492 50 16.125 50C21.3008 50 25.5 45.8008 25.5 40.625H38C38 45.8008 42.1992 50 47.375 50C52.5508 50 56.75 45.8008 56.75 40.625H61.4375C62.2969 40.625 63 39.9219 63 39.0625V35.9375C63 35.0781 62.2969 34.375 61.4375 34.375ZM16.125 45.3125C13.5371 45.3125 11.4375 43.2129 11.4375 40.625C11.4375 38.0371 13.5371 35.9375 16.125 35.9375C18.7129 35.9375 20.8125 38.0371 20.8125 40.625C20.8125 43.2129 18.7129 45.3125 16.125 45.3125ZM47.375 45.3125C44.7871 45.3125 42.6875 43.2129 42.6875 40.625C42.6875 38.0371 44.7871 35.9375 47.375 35.9375C49.9629 35.9375 52.0625 38.0371 52.0625 40.625C52.0625 43.2129 49.9629 45.3125 47.375 45.3125ZM55.1875 25H41.125V14.0625H45.4316L55.1875 23.8184V25Z" fill="white"/>
</svg>
