<svg width="38" height="50" viewBox="0 0 38 50" fill="none" xmlns="http://www.w3.org/2000/svg">
<path d="M35.4963 0.315097L31.7467 4.68964L26.4348 0.315097C26.165 0.110756 25.8358 0.000167091 25.4974 0.000167091C25.1589 0.000167091 24.8298 0.110756 24.56 0.315097L19.248 4.68964L13.9361 0.315097C13.6663 0.110756 13.3371 0.000167091 12.9987 0.000167091C12.6602 0.000167091 12.3311 0.110756 12.0613 0.315097L6.74934 4.68964L2.99974 0.315097C1.96469 -0.456306 0.5 0.276039 0.5 1.56497V48.435C0.5 49.724 1.96469 50.4563 2.99974 49.6849L6.74934 45.3104L12.0613 49.6849C12.3311 49.8892 12.6602 49.9998 12.9987 49.9998C13.3371 49.9998 13.6663 49.8892 13.9361 49.6849L19.248 45.3104L24.56 49.6849C24.8298 49.8892 25.1589 49.9998 25.4974 49.9998C25.8358 49.9998 26.165 49.8892 26.4348 49.6849L31.7467 45.3104L35.4963 49.6849C36.5216 50.4563 37.9961 49.724 37.9961 48.435V1.56497C37.9961 0.276039 36.5314 -0.456306 35.4963 0.315097ZM31.7467 35.1552C31.7467 35.5848 31.3952 35.9364 30.9655 35.9364H7.53051C7.10087 35.9364 6.74934 35.5848 6.74934 35.1552V33.5928C6.74934 33.1632 7.10087 32.8117 7.53051 32.8117H30.9655C31.3952 32.8117 31.7467 33.1632 31.7467 33.5928V35.1552ZM31.7467 25.7812C31.7467 26.2108 31.3952 26.5623 30.9655 26.5623H7.53051C7.10087 26.5623 6.74934 26.2108 6.74934 25.7812V24.2188C6.74934 23.7892 7.10087 23.4377 7.53051 23.4377H30.9655C31.3952 23.4377 31.7467 23.7892 31.7467 24.2188V25.7812ZM31.7467 16.4072C31.7467 16.8368 31.3952 17.1883 30.9655 17.1883H7.53051C7.10087 17.1883 6.74934 16.8368 6.74934 16.4072V14.8448C6.74934 14.4152 7.10087 14.0637 7.53051 14.0637H30.9655C31.3952 14.0637 31.7467 14.4152 31.7467 14.8448V16.4072Z" fill="white"/>
</svg>
