<svg width="38" height="50" viewBox="0 0 38 50" fill="none" xmlns="http://www.w3.org/2000/svg">
<path d="M37.3164 10.2539L27.7559 0.683594C27.3164 0.244141 26.7207 0 26.0957 0H25.5V12.5H38V11.9043C38 11.2891 37.7559 10.6934 37.3164 10.2539ZM22.375 13.2812V0H2.84375C1.54492 0 0.5 1.04492 0.5 2.34375V47.6562C0.5 48.9551 1.54492 50 2.84375 50H35.6562C36.9551 50 38 48.9551 38 47.6562V15.625H24.7188C23.4297 15.625 22.375 14.5703 22.375 13.2812ZM6.75 7.03125C6.75 6.59961 7.09961 6.25 7.53125 6.25H15.3438C15.7754 6.25 16.125 6.59961 16.125 7.03125V8.59375C16.125 9.02539 15.7754 9.375 15.3438 9.375H7.53125C7.09961 9.375 6.75 9.02539 6.75 8.59375V7.03125ZM6.75 14.8438V13.2812C6.75 12.8496 7.09961 12.5 7.53125 12.5H15.3438C15.7754 12.5 16.125 12.8496 16.125 13.2812V14.8438C16.125 15.2754 15.7754 15.625 15.3438 15.625H7.53125C7.09961 15.625 6.75 15.2754 6.75 14.8438ZM20.8125 40.6133V42.9688C20.8125 43.4004 20.4629 43.75 20.0312 43.75H18.4688C18.0371 43.75 17.6875 43.4004 17.6875 42.9688V40.5967C16.585 40.54 15.5127 40.1553 14.624 39.4883C14.2432 39.2021 14.2236 38.6318 14.5684 38.3027L15.7158 37.208C15.9863 36.9502 16.3887 36.9385 16.7051 37.1367C17.083 37.373 17.5117 37.5 17.957 37.5H20.7021C21.3369 37.5 21.8545 36.9219 21.8545 36.2119C21.8545 35.6309 21.502 35.1191 20.998 34.9688L16.6035 33.6504C14.7881 33.1055 13.5195 31.3633 13.5195 29.4131C13.5195 27.0186 15.3799 25.0732 17.6865 25.0117V22.6562C17.6865 22.2246 18.0361 21.875 18.4678 21.875H20.0303C20.4619 21.875 20.8115 22.2246 20.8115 22.6562V25.0283C21.9141 25.085 22.9863 25.4688 23.875 26.1367C24.2559 26.4229 24.2754 26.9932 23.9307 27.3223L22.7832 28.417C22.5127 28.6748 22.1104 28.6865 21.7939 28.4883C21.416 28.251 20.9873 28.125 20.542 28.125H17.7969C17.1621 28.125 16.6445 28.7031 16.6445 29.4131C16.6445 29.9941 16.9971 30.5059 17.501 30.6563L21.8955 31.9746C23.7109 32.5195 24.9795 34.2617 24.9795 36.2119C24.9795 38.6074 23.1191 40.5518 20.8125 40.6133Z" fill="white"/>
</svg>
